<mxfile host="65bd71144e">
    <diagram id="C5RBs43oDa-KdzZeNtuy" name="Page-1">
        <mxGraphModel dx="1557" dy="934" grid="1" gridSize="10" guides="1" tooltips="1" connect="1" arrows="1" fold="1" page="1" pageScale="1" pageWidth="2000" pageHeight="2000" math="0" shadow="0">
            <root>
                <mxCell id="WIyWlLk6GJQsqaUBKTNV-0"/>
                <mxCell id="WIyWlLk6GJQsqaUBKTNV-1" parent="WIyWlLk6GJQsqaUBKTNV-0"/>
                <mxCell id="171" style="edgeStyle=none;html=1;dashed=1;endArrow=open;endFill=0;" parent="WIyWlLk6GJQsqaUBKTNV-1" source="ybDPWDcmM2NUyqlbh23f-157" target="ybDPWDcmM2NUyqlbh23f-164" edge="1">
                    <mxGeometry relative="1" as="geometry"/>
                </mxCell>
                <object label="&lt;&lt;boundary&gt;&gt;&#10;載入資料UI" placeholders="1" id="ybDPWDcmM2NUyqlbh23f-157">
                    <mxCell style="swimlane;fontStyle=0;align=center;verticalAlign=top;childLayout=stackLayout;horizontal=1;startSize=40;horizontalStack=0;resizeParent=1;resizeLast=0;collapsible=1;marginBottom=0;rounded=0;shadow=0;strokeWidth=1;" parent="WIyWlLk6GJQsqaUBKTNV-1" vertex="1">
                        <mxGeometry x="250" y="430" width="160" height="160" as="geometry">
                            <mxRectangle x="1260" y="310" width="160" height="26" as="alternateBounds"/>
                        </mxGeometry>
                    </mxCell>
                </object>
                <mxCell id="ybDPWDcmM2NUyqlbh23f-158" value="附檔名稱" style="text;align=left;verticalAlign=top;spacingLeft=4;spacingRight=4;overflow=hidden;rotatable=0;points=[[0,0.5],[1,0.5]];portConstraint=eastwest;rounded=0;shadow=0;html=0;" parent="ybDPWDcmM2NUyqlbh23f-157" vertex="1">
                    <mxGeometry y="40" width="160" height="26" as="geometry"/>
                </mxCell>
                <mxCell id="ybDPWDcmM2NUyqlbh23f-159" value="附檔位置" style="text;align=left;verticalAlign=top;spacingLeft=4;spacingRight=4;overflow=hidden;rotatable=0;points=[[0,0.5],[1,0.5]];portConstraint=eastwest;" parent="ybDPWDcmM2NUyqlbh23f-157" vertex="1">
                    <mxGeometry y="66" width="160" height="26" as="geometry"/>
                </mxCell>
                <mxCell id="ybDPWDcmM2NUyqlbh23f-160" value="插入附加資料" style="text;align=left;verticalAlign=top;spacingLeft=4;spacingRight=4;overflow=hidden;rotatable=0;points=[[0,0.5],[1,0.5]];portConstraint=eastwest;rounded=0;shadow=0;html=0;" parent="ybDPWDcmM2NUyqlbh23f-157" vertex="1">
                    <mxGeometry y="92" width="160" height="26" as="geometry"/>
                </mxCell>
                <mxCell id="ybDPWDcmM2NUyqlbh23f-162" value="" style="line;html=1;strokeWidth=1;align=left;verticalAlign=middle;spacingTop=-1;spacingLeft=3;spacingRight=3;rotatable=0;labelPosition=right;points=[];portConstraint=eastwest;" parent="ybDPWDcmM2NUyqlbh23f-157" vertex="1">
                    <mxGeometry y="118" width="160" height="8" as="geometry"/>
                </mxCell>
                <mxCell id="ybDPWDcmM2NUyqlbh23f-163" value="插入附加資料()" style="text;align=left;verticalAlign=top;spacingLeft=4;spacingRight=4;overflow=hidden;rotatable=0;points=[[0,0.5],[1,0.5]];portConstraint=eastwest;" parent="ybDPWDcmM2NUyqlbh23f-157" vertex="1">
                    <mxGeometry y="126" width="160" height="26" as="geometry"/>
                </mxCell>
                <mxCell id="172" style="edgeStyle=none;html=1;dashed=1;endArrow=open;endFill=0;startArrow=none;startFill=0;" parent="WIyWlLk6GJQsqaUBKTNV-1" source="ybDPWDcmM2NUyqlbh23f-164" target="ybDPWDcmM2NUyqlbh23f-192" edge="1">
                    <mxGeometry relative="1" as="geometry"/>
                </mxCell>
                <object label="&lt;&lt;boundary&gt;&gt;&#10;查看UI" placeholders="1" id="ybDPWDcmM2NUyqlbh23f-164">
                    <mxCell style="swimlane;fontStyle=0;align=center;verticalAlign=top;childLayout=stackLayout;horizontal=1;startSize=40;horizontalStack=0;resizeParent=1;resizeLast=0;collapsible=1;marginBottom=0;rounded=0;shadow=0;strokeWidth=1;" parent="WIyWlLk6GJQsqaUBKTNV-1" vertex="1">
                        <mxGeometry x="510" y="143" width="160" height="314" as="geometry">
                            <mxRectangle x="1260" y="310" width="160" height="26" as="alternateBounds"/>
                        </mxGeometry>
                    </mxCell>
                </object>
                <mxCell id="ybDPWDcmM2NUyqlbh23f-165" value="備課資料檔案名稱" style="text;align=left;verticalAlign=top;spacingLeft=4;spacingRight=4;overflow=hidden;rotatable=0;points=[[0,0.5],[1,0.5]];portConstraint=eastwest;rounded=0;shadow=0;html=0;" parent="ybDPWDcmM2NUyqlbh23f-164" vertex="1">
                    <mxGeometry y="40" width="160" height="26" as="geometry"/>
                </mxCell>
                <mxCell id="ybDPWDcmM2NUyqlbh23f-166" value="輸入內文" style="text;align=left;verticalAlign=top;spacingLeft=4;spacingRight=4;overflow=hidden;rotatable=0;points=[[0,0.5],[1,0.5]];portConstraint=eastwest;" parent="ybDPWDcmM2NUyqlbh23f-164" vertex="1">
                    <mxGeometry y="66" width="160" height="26" as="geometry"/>
                </mxCell>
                <mxCell id="ybDPWDcmM2NUyqlbh23f-145" value="備課資料大綱 " style="text;align=left;verticalAlign=top;spacingLeft=4;spacingRight=4;overflow=hidden;rotatable=0;points=[[0,0.5],[1,0.5]];portConstraint=eastwest;" parent="ybDPWDcmM2NUyqlbh23f-164" vertex="1">
                    <mxGeometry y="92" width="160" height="26" as="geometry"/>
                </mxCell>
                <mxCell id="ybDPWDcmM2NUyqlbh23f-167" value="載入附檔" style="text;align=left;verticalAlign=top;spacingLeft=4;spacingRight=4;overflow=hidden;rotatable=0;points=[[0,0.5],[1,0.5]];portConstraint=eastwest;rounded=0;shadow=0;html=0;" parent="ybDPWDcmM2NUyqlbh23f-164" vertex="1">
                    <mxGeometry y="118" width="160" height="26" as="geometry"/>
                </mxCell>
                <mxCell id="ybDPWDcmM2NUyqlbh23f-168" value="生成推薦備課資料" style="text;align=left;verticalAlign=top;spacingLeft=4;spacingRight=4;overflow=hidden;rotatable=0;points=[[0,0.5],[1,0.5]];portConstraint=eastwest;rounded=0;shadow=0;html=0;" parent="ybDPWDcmM2NUyqlbh23f-164" vertex="1">
                    <mxGeometry y="144" width="160" height="26" as="geometry"/>
                </mxCell>
                <mxCell id="ybDPWDcmM2NUyqlbh23f-144" value="備課資料名稱" style="text;align=left;verticalAlign=top;spacingLeft=4;spacingRight=4;overflow=hidden;rotatable=1;points=[[0,0.5],[1,0.5]];portConstraint=eastwest;rounded=0;shadow=0;html=0;movable=1;resizable=1;deletable=1;editable=1;locked=0;connectable=1;" parent="ybDPWDcmM2NUyqlbh23f-164" vertex="1">
                    <mxGeometry y="170" width="160" height="26" as="geometry"/>
                </mxCell>
                <mxCell id="ybDPWDcmM2NUyqlbh23f-146" value="建立備課資料" style="text;align=left;verticalAlign=top;spacingLeft=4;spacingRight=4;overflow=hidden;rotatable=0;points=[[0,0.5],[1,0.5]];portConstraint=eastwest;rounded=0;shadow=0;html=0;" parent="ybDPWDcmM2NUyqlbh23f-164" vertex="1">
                    <mxGeometry y="196" width="160" height="26" as="geometry"/>
                </mxCell>
                <mxCell id="ybDPWDcmM2NUyqlbh23f-169" value="" style="line;html=1;strokeWidth=1;align=left;verticalAlign=middle;spacingTop=-1;spacingLeft=3;spacingRight=3;rotatable=0;labelPosition=right;points=[];portConstraint=eastwest;" parent="ybDPWDcmM2NUyqlbh23f-164" vertex="1">
                    <mxGeometry y="222" width="160" height="8" as="geometry"/>
                </mxCell>
                <mxCell id="175" value="傳送更改後備課資料()" style="text;align=left;verticalAlign=top;spacingLeft=4;spacingRight=4;overflow=hidden;rotatable=0;points=[[0,0.5],[1,0.5]];portConstraint=eastwest;" parent="ybDPWDcmM2NUyqlbh23f-164" vertex="1">
                    <mxGeometry y="230" width="160" height="26" as="geometry"/>
                </mxCell>
                <mxCell id="ybDPWDcmM2NUyqlbh23f-170" value="傳送備課資料()" style="text;align=left;verticalAlign=top;spacingLeft=4;spacingRight=4;overflow=hidden;rotatable=0;points=[[0,0.5],[1,0.5]];portConstraint=eastwest;" parent="ybDPWDcmM2NUyqlbh23f-164" vertex="1">
                    <mxGeometry y="256" width="160" height="26" as="geometry"/>
                </mxCell>
                <mxCell id="ybDPWDcmM2NUyqlbh23f-149" value="建立備課資料()" style="text;align=left;verticalAlign=top;spacingLeft=4;spacingRight=4;overflow=hidden;rotatable=0;points=[[0,0.5],[1,0.5]];portConstraint=eastwest;" parent="ybDPWDcmM2NUyqlbh23f-164" vertex="1">
                    <mxGeometry y="282" width="160" height="26" as="geometry"/>
                </mxCell>
                <mxCell id="182" style="edgeStyle=none;html=1;dashed=1;fontColor=#FFFFFF;endArrow=open;endFill=0;" parent="WIyWlLk6GJQsqaUBKTNV-1" source="ybDPWDcmM2NUyqlbh23f-171" target="ybDPWDcmM2NUyqlbh23f-213" edge="1">
                    <mxGeometry relative="1" as="geometry"/>
                </mxCell>
                <mxCell id="216" style="edgeStyle=none;html=1;dashed=1;startArrow=open;startFill=0;endArrow=open;endFill=0;" parent="WIyWlLk6GJQsqaUBKTNV-1" source="ybDPWDcmM2NUyqlbh23f-171" target="187" edge="1">
                    <mxGeometry relative="1" as="geometry"/>
                </mxCell>
                <object label="&lt;&lt;boundary&gt;&gt;&#10;確認資料UI" placeholders="1" id="ybDPWDcmM2NUyqlbh23f-171">
                    <mxCell style="swimlane;fontStyle=0;align=center;verticalAlign=top;childLayout=stackLayout;horizontal=1;startSize=40;horizontalStack=0;resizeParent=1;resizeLast=0;collapsible=1;marginBottom=0;rounded=0;shadow=0;strokeWidth=1;" parent="WIyWlLk6GJQsqaUBKTNV-1" vertex="1">
                        <mxGeometry x="280" y="694" width="160" height="386" as="geometry">
                            <mxRectangle x="1260" y="310" width="160" height="26" as="alternateBounds"/>
                        </mxGeometry>
                    </mxCell>
                </object>
                <mxCell id="ybDPWDcmM2NUyqlbh23f-172" value="備課資料名稱" style="text;align=left;verticalAlign=top;spacingLeft=4;spacingRight=4;overflow=hidden;rotatable=0;points=[[0,0.5],[1,0.5]];portConstraint=eastwest;rounded=0;shadow=0;html=0;" parent="ybDPWDcmM2NUyqlbh23f-171" vertex="1">
                    <mxGeometry y="40" width="160" height="26" as="geometry"/>
                </mxCell>
                <mxCell id="ybDPWDcmM2NUyqlbh23f-173" value="推薦資料內文" style="text;align=left;verticalAlign=top;spacingLeft=4;spacingRight=4;overflow=hidden;rotatable=0;points=[[0,0.5],[1,0.5]];portConstraint=eastwest;" parent="ybDPWDcmM2NUyqlbh23f-171" vertex="1">
                    <mxGeometry y="66" width="160" height="26" as="geometry"/>
                </mxCell>
                <mxCell id="ybDPWDcmM2NUyqlbh23f-174" value="推薦資料來源" style="text;align=left;verticalAlign=top;spacingLeft=4;spacingRight=4;overflow=hidden;rotatable=0;points=[[0,0.5],[1,0.5]];portConstraint=eastwest;rounded=0;shadow=0;html=0;" parent="ybDPWDcmM2NUyqlbh23f-171" vertex="1">
                    <mxGeometry y="92" width="160" height="26" as="geometry"/>
                </mxCell>
                <mxCell id="ybDPWDcmM2NUyqlbh23f-175" value="儲存推薦資料" style="text;align=left;verticalAlign=top;spacingLeft=4;spacingRight=4;overflow=hidden;rotatable=0;points=[[0,0.5],[1,0.5]];portConstraint=eastwest;rounded=0;shadow=0;html=0;" parent="ybDPWDcmM2NUyqlbh23f-171" vertex="1">
                    <mxGeometry y="118" width="160" height="26" as="geometry"/>
                </mxCell>
                <mxCell id="ybDPWDcmM2NUyqlbh23f-224" value="編輯推薦資料" style="text;align=left;verticalAlign=top;spacingLeft=4;spacingRight=4;overflow=hidden;rotatable=0;points=[[0,0.5],[1,0.5]];portConstraint=eastwest;rounded=0;shadow=0;html=0;" parent="ybDPWDcmM2NUyqlbh23f-171" vertex="1">
                    <mxGeometry y="144" width="160" height="26" as="geometry"/>
                </mxCell>
                <mxCell id="ybDPWDcmM2NUyqlbh23f-176" value="" style="line;html=1;strokeWidth=1;align=left;verticalAlign=middle;spacingTop=-1;spacingLeft=3;spacingRight=3;rotatable=0;labelPosition=right;points=[];portConstraint=eastwest;" parent="ybDPWDcmM2NUyqlbh23f-171" vertex="1">
                    <mxGeometry y="170" width="160" height="8" as="geometry"/>
                </mxCell>
                <mxCell id="ybDPWDcmM2NUyqlbh23f-177" value="儲存推薦資料()" style="text;align=left;verticalAlign=top;spacingLeft=4;spacingRight=4;overflow=hidden;rotatable=0;points=[[0,0.5],[1,0.5]];portConstraint=eastwest;" parent="ybDPWDcmM2NUyqlbh23f-171" vertex="1">
                    <mxGeometry y="178" width="160" height="26" as="geometry"/>
                </mxCell>
                <mxCell id="180" value="編輯推薦資料()" style="text;align=left;verticalAlign=top;spacingLeft=4;spacingRight=4;overflow=hidden;rotatable=0;points=[[0,0.5],[1,0.5]];portConstraint=eastwest;" parent="ybDPWDcmM2NUyqlbh23f-171" vertex="1">
                    <mxGeometry y="204" width="160" height="26" as="geometry"/>
                </mxCell>
                <mxCell id="179" value="傳送刪除快取資料要求()" style="text;align=left;verticalAlign=top;spacingLeft=4;spacingRight=4;overflow=hidden;rotatable=0;points=[[0,0.5],[1,0.5]];portConstraint=eastwest;" parent="ybDPWDcmM2NUyqlbh23f-171" vertex="1">
                    <mxGeometry y="230" width="160" height="26" as="geometry"/>
                </mxCell>
                <mxCell id="183" value="請求推薦前資料()" style="text;align=left;verticalAlign=top;spacingLeft=4;spacingRight=4;overflow=hidden;rotatable=0;points=[[0,0.5],[1,0.5]];portConstraint=eastwest;" parent="ybDPWDcmM2NUyqlbh23f-171" vertex="1">
                    <mxGeometry y="256" width="160" height="26" as="geometry"/>
                </mxCell>
                <mxCell id="186" value="讀取最終儲存資料()" style="text;align=left;verticalAlign=top;spacingLeft=4;spacingRight=4;overflow=hidden;rotatable=0;points=[[0,0.5],[1,0.5]];portConstraint=eastwest;" parent="ybDPWDcmM2NUyqlbh23f-171" vertex="1">
                    <mxGeometry y="282" width="160" height="26" as="geometry"/>
                </mxCell>
                <mxCell id="192" value="請求所需資料()" style="text;align=left;verticalAlign=top;spacingLeft=4;spacingRight=4;overflow=hidden;rotatable=0;points=[[0,0.5],[1,0.5]];portConstraint=eastwest;" parent="ybDPWDcmM2NUyqlbh23f-171" vertex="1">
                    <mxGeometry y="308" width="160" height="26" as="geometry"/>
                </mxCell>
                <mxCell id="240" value="儲存需編輯資料()" style="text;align=left;verticalAlign=top;spacingLeft=4;spacingRight=4;overflow=hidden;rotatable=0;points=[[0,0.5],[1,0.5]];portConstraint=eastwest;" parent="ybDPWDcmM2NUyqlbh23f-171" vertex="1">
                    <mxGeometry y="334" width="160" height="26" as="geometry"/>
                </mxCell>
                <mxCell id="244" value="傳送編輯完建議資料()" style="text;align=left;verticalAlign=top;spacingLeft=4;spacingRight=4;overflow=hidden;rotatable=0;points=[[0,0.5],[1,0.5]];portConstraint=eastwest;" parent="ybDPWDcmM2NUyqlbh23f-171" vertex="1">
                    <mxGeometry y="360" width="160" height="26" as="geometry"/>
                </mxCell>
                <mxCell id="231" style="edgeStyle=none;html=1;dashed=1;startArrow=none;startFill=0;endArrow=open;endFill=0;" parent="WIyWlLk6GJQsqaUBKTNV-1" source="ybDPWDcmM2NUyqlbh23f-192" target="221" edge="1">
                    <mxGeometry relative="1" as="geometry"/>
                </mxCell>
                <object label="&lt;&lt;control&gt;&gt;&#10;上傳資料" placeholders="1" id="ybDPWDcmM2NUyqlbh23f-192">
                    <mxCell style="swimlane;fontStyle=0;align=center;verticalAlign=top;childLayout=stackLayout;horizontal=1;startSize=40;horizontalStack=0;resizeParent=1;resizeLast=0;collapsible=1;marginBottom=0;rounded=0;shadow=0;strokeWidth=1;" parent="WIyWlLk6GJQsqaUBKTNV-1" vertex="1">
                        <mxGeometry x="790" y="250" width="160" height="100" as="geometry">
                            <mxRectangle x="1260" y="310" width="160" height="26" as="alternateBounds"/>
                        </mxGeometry>
                    </mxCell>
                </object>
                <mxCell id="ybDPWDcmM2NUyqlbh23f-197" value="" style="line;html=1;strokeWidth=1;align=left;verticalAlign=middle;spacingTop=-1;spacingLeft=3;spacingRight=3;rotatable=0;labelPosition=right;points=[];portConstraint=eastwest;" parent="ybDPWDcmM2NUyqlbh23f-192" vertex="1">
                    <mxGeometry y="40" width="160" height="8" as="geometry"/>
                </mxCell>
                <mxCell id="ybDPWDcmM2NUyqlbh23f-198" value="輸入備課資料()" style="text;align=left;verticalAlign=top;spacingLeft=4;spacingRight=4;overflow=hidden;rotatable=0;points=[[0,0.5],[1,0.5]];portConstraint=eastwest;" parent="ybDPWDcmM2NUyqlbh23f-192" vertex="1">
                    <mxGeometry y="48" width="160" height="26" as="geometry"/>
                </mxCell>
                <mxCell id="230" value="提出備課資料()" style="text;align=left;verticalAlign=top;spacingLeft=4;spacingRight=4;overflow=hidden;rotatable=0;points=[[0,0.5],[1,0.5]];portConstraint=eastwest;" parent="ybDPWDcmM2NUyqlbh23f-192" vertex="1">
                    <mxGeometry y="74" width="160" height="26" as="geometry"/>
                </mxCell>
                <mxCell id="158" style="edgeStyle=none;html=1;endArrow=open;endFill=0;dashed=1;startArrow=open;startFill=0;" parent="WIyWlLk6GJQsqaUBKTNV-1" source="ybDPWDcmM2NUyqlbh23f-199" target="ybDPWDcmM2NUyqlbh23f-213" edge="1">
                    <mxGeometry relative="1" as="geometry"/>
                </mxCell>
                <mxCell id="159" style="edgeStyle=none;html=1;dashed=1;endArrow=open;endFill=0;startArrow=open;startFill=0;" parent="WIyWlLk6GJQsqaUBKTNV-1" source="ybDPWDcmM2NUyqlbh23f-199" target="ybDPWDcmM2NUyqlbh23f-171" edge="1">
                    <mxGeometry relative="1" as="geometry"/>
                </mxCell>
                <mxCell id="162" style="edgeStyle=none;html=1;dashed=1;endArrow=open;endFill=0;" parent="WIyWlLk6GJQsqaUBKTNV-1" source="ybDPWDcmM2NUyqlbh23f-199" target="ybDPWDcmM2NUyqlbh23f-164" edge="1">
                    <mxGeometry relative="1" as="geometry"/>
                </mxCell>
                <mxCell id="163" style="edgeStyle=none;html=1;dashed=1;endArrow=open;endFill=0;" parent="WIyWlLk6GJQsqaUBKTNV-1" source="ybDPWDcmM2NUyqlbh23f-199" target="ybDPWDcmM2NUyqlbh23f-157" edge="1">
                    <mxGeometry relative="1" as="geometry"/>
                </mxCell>
                <mxCell id="219" style="edgeStyle=none;html=1;dashed=1;endArrow=open;endFill=0;" parent="WIyWlLk6GJQsqaUBKTNV-1" source="ybDPWDcmM2NUyqlbh23f-199" target="193" edge="1">
                    <mxGeometry relative="1" as="geometry"/>
                </mxCell>
                <object label="&lt;&lt;control&gt;&gt;&#10;顯示" placeholders="1" id="ybDPWDcmM2NUyqlbh23f-199">
                    <mxCell style="swimlane;fontStyle=0;align=center;verticalAlign=top;childLayout=stackLayout;horizontal=1;startSize=40;horizontalStack=0;resizeParent=1;resizeLast=0;collapsible=1;marginBottom=0;rounded=0;shadow=0;strokeWidth=1;" parent="WIyWlLk6GJQsqaUBKTNV-1" vertex="1">
                        <mxGeometry x="570" y="550" width="160" height="282" as="geometry">
                            <mxRectangle x="1260" y="310" width="160" height="26" as="alternateBounds"/>
                        </mxGeometry>
                    </mxCell>
                </object>
                <mxCell id="ybDPWDcmM2NUyqlbh23f-204" value="" style="line;html=1;strokeWidth=1;align=left;verticalAlign=middle;spacingTop=-1;spacingLeft=3;spacingRight=3;rotatable=0;labelPosition=right;points=[];portConstraint=eastwest;" parent="ybDPWDcmM2NUyqlbh23f-199" vertex="1">
                    <mxGeometry y="40" width="160" height="8" as="geometry"/>
                </mxCell>
                <mxCell id="ybDPWDcmM2NUyqlbh23f-205" value="顯示現有備課資料()" style="text;align=left;verticalAlign=top;spacingLeft=4;spacingRight=4;overflow=hidden;rotatable=0;points=[[0,0.5],[1,0.5]];portConstraint=eastwest;" parent="ybDPWDcmM2NUyqlbh23f-199" vertex="1">
                    <mxGeometry y="48" width="160" height="26" as="geometry"/>
                </mxCell>
                <mxCell id="150" value="顯示推薦備課資料()" style="text;align=left;verticalAlign=top;spacingLeft=4;spacingRight=4;overflow=hidden;rotatable=0;points=[[0,0.5],[1,0.5]];portConstraint=eastwest;" parent="ybDPWDcmM2NUyqlbh23f-199" vertex="1">
                    <mxGeometry y="74" width="160" height="26" as="geometry"/>
                </mxCell>
                <mxCell id="151" value="顯示最終備課資料()" style="text;align=left;verticalAlign=top;spacingLeft=4;spacingRight=4;overflow=hidden;rotatable=0;points=[[0,0.5],[1,0.5]];portConstraint=eastwest;" parent="ybDPWDcmM2NUyqlbh23f-199" vertex="1">
                    <mxGeometry y="100" width="160" height="26" as="geometry"/>
                </mxCell>
                <mxCell id="164" value="載入輸入資料UI()" style="text;align=left;verticalAlign=top;spacingLeft=4;spacingRight=4;overflow=hidden;rotatable=0;points=[[0,0.5],[1,0.5]];portConstraint=eastwest;" parent="ybDPWDcmM2NUyqlbh23f-199" vertex="1">
                    <mxGeometry y="126" width="160" height="26" as="geometry"/>
                </mxCell>
                <mxCell id="166" value="載入確認資料UI()" style="text;align=left;verticalAlign=top;spacingLeft=4;spacingRight=4;overflow=hidden;rotatable=0;points=[[0,0.5],[1,0.5]];portConstraint=eastwest;" parent="ybDPWDcmM2NUyqlbh23f-199" vertex="1">
                    <mxGeometry y="152" width="160" height="26" as="geometry"/>
                </mxCell>
                <mxCell id="167" value="載入查看資料UI()" style="text;align=left;verticalAlign=top;spacingLeft=4;spacingRight=4;overflow=hidden;rotatable=0;points=[[0,0.5],[1,0.5]];portConstraint=eastwest;" parent="ybDPWDcmM2NUyqlbh23f-199" vertex="1">
                    <mxGeometry y="178" width="160" height="26" as="geometry"/>
                </mxCell>
                <mxCell id="169" value="載入建立資料UI()" style="text;align=left;verticalAlign=top;spacingLeft=4;spacingRight=4;overflow=hidden;rotatable=0;points=[[0,0.5],[1,0.5]];portConstraint=eastwest;" parent="ybDPWDcmM2NUyqlbh23f-199" vertex="1">
                    <mxGeometry y="204" width="160" height="26" as="geometry"/>
                </mxCell>
                <mxCell id="173" value="顯示推薦備課資料()" style="text;align=left;verticalAlign=top;spacingLeft=4;spacingRight=4;overflow=hidden;rotatable=0;points=[[0,0.5],[1,0.5]];portConstraint=eastwest;" parent="ybDPWDcmM2NUyqlbh23f-199" vertex="1">
                    <mxGeometry y="230" width="160" height="26" as="geometry"/>
                </mxCell>
                <mxCell id="220" value="搜尋老師資料()" style="text;align=left;verticalAlign=top;spacingLeft=4;spacingRight=4;overflow=hidden;rotatable=0;points=[[0,0.5],[1,0.5]];portConstraint=eastwest;" parent="ybDPWDcmM2NUyqlbh23f-199" vertex="1">
                    <mxGeometry y="256" width="160" height="26" as="geometry"/>
                </mxCell>
                <object label="&lt;&lt;entity&gt;&gt;&#10;備課資料庫" placeholders="1" id="ybDPWDcmM2NUyqlbh23f-213">
                    <mxCell style="swimlane;fontStyle=0;align=center;verticalAlign=top;childLayout=stackLayout;horizontal=1;startSize=40;horizontalStack=0;resizeParent=1;resizeLast=0;collapsible=1;marginBottom=0;rounded=0;shadow=0;strokeWidth=1;" parent="WIyWlLk6GJQsqaUBKTNV-1" vertex="1">
                        <mxGeometry x="870" y="720" width="160" height="308" as="geometry">
                            <mxRectangle x="1260" y="310" width="160" height="26" as="alternateBounds"/>
                        </mxGeometry>
                    </mxCell>
                </object>
                <mxCell id="ybDPWDcmM2NUyqlbh23f-214" value="檔案編號:Integer" style="text;align=left;verticalAlign=top;spacingLeft=4;spacingRight=4;overflow=hidden;rotatable=0;points=[[0,0.5],[1,0.5]];portConstraint=eastwest;rounded=0;shadow=0;html=0;" parent="ybDPWDcmM2NUyqlbh23f-213" vertex="1">
                    <mxGeometry y="40" width="160" height="26" as="geometry"/>
                </mxCell>
                <mxCell id="ybDPWDcmM2NUyqlbh23f-215" value="評量名稱:String" style="text;align=left;verticalAlign=top;spacingLeft=4;spacingRight=4;overflow=hidden;rotatable=0;points=[[0,0.5],[1,0.5]];portConstraint=eastwest;" parent="ybDPWDcmM2NUyqlbh23f-213" vertex="1">
                    <mxGeometry y="66" width="160" height="26" as="geometry"/>
                </mxCell>
                <mxCell id="ybDPWDcmM2NUyqlbh23f-216" value="建立日期:Datetime" style="text;align=left;verticalAlign=top;spacingLeft=4;spacingRight=4;overflow=hidden;rotatable=0;points=[[0,0.5],[1,0.5]];portConstraint=eastwest;rounded=0;shadow=0;html=0;" parent="ybDPWDcmM2NUyqlbh23f-213" vertex="1">
                    <mxGeometry y="92" width="160" height="26" as="geometry"/>
                </mxCell>
                <mxCell id="ybDPWDcmM2NUyqlbh23f-217" value="評量內容: String" style="text;align=left;verticalAlign=top;spacingLeft=4;spacingRight=4;overflow=hidden;rotatable=0;points=[[0,0.5],[1,0.5]];portConstraint=eastwest;rounded=0;shadow=0;html=0;" parent="ybDPWDcmM2NUyqlbh23f-213" vertex="1">
                    <mxGeometry y="118" width="160" height="26" as="geometry"/>
                </mxCell>
                <mxCell id="ybDPWDcmM2NUyqlbh23f-218" value="" style="line;html=1;strokeWidth=1;align=left;verticalAlign=middle;spacingTop=-1;spacingLeft=3;spacingRight=3;rotatable=0;labelPosition=right;points=[];portConstraint=eastwest;" parent="ybDPWDcmM2NUyqlbh23f-213" vertex="1">
                    <mxGeometry y="144" width="160" height="8" as="geometry"/>
                </mxCell>
                <mxCell id="152" value="寫入資料()" style="text;align=left;verticalAlign=top;spacingLeft=4;spacingRight=4;overflow=hidden;rotatable=0;points=[[0,0.5],[1,0.5]];portConstraint=eastwest;" parent="ybDPWDcmM2NUyqlbh23f-213" vertex="1">
                    <mxGeometry y="152" width="160" height="26" as="geometry"/>
                </mxCell>
                <mxCell id="153" value="讀取備課資料()" style="text;align=left;verticalAlign=top;spacingLeft=4;spacingRight=4;overflow=hidden;rotatable=0;points=[[0,0.5],[1,0.5]];portConstraint=eastwest;" parent="ybDPWDcmM2NUyqlbh23f-213" vertex="1">
                    <mxGeometry y="178" width="160" height="26" as="geometry"/>
                </mxCell>
                <mxCell id="154" value="建立評量()" style="text;align=left;verticalAlign=top;spacingLeft=4;spacingRight=4;overflow=hidden;rotatable=0;points=[[0,0.5],[1,0.5]];portConstraint=eastwest;" parent="ybDPWDcmM2NUyqlbh23f-213" vertex="1">
                    <mxGeometry y="204" width="160" height="26" as="geometry"/>
                </mxCell>
                <mxCell id="155" value="編輯備課資料()" style="text;align=left;verticalAlign=top;spacingLeft=4;spacingRight=4;overflow=hidden;rotatable=0;points=[[0,0.5],[1,0.5]];portConstraint=eastwest;" parent="ybDPWDcmM2NUyqlbh23f-213" vertex="1">
                    <mxGeometry y="230" width="160" height="26" as="geometry"/>
                </mxCell>
                <mxCell id="174" value="傳送推薦前的資料()" style="text;align=left;verticalAlign=top;spacingLeft=4;spacingRight=4;overflow=hidden;rotatable=0;points=[[0,0.5],[1,0.5]];portConstraint=eastwest;" parent="ybDPWDcmM2NUyqlbh23f-213" vertex="1">
                    <mxGeometry y="256" width="160" height="26" as="geometry"/>
                </mxCell>
                <mxCell id="239" value="回傳推薦備課資料()" style="text;align=left;verticalAlign=top;spacingLeft=4;spacingRight=4;overflow=hidden;rotatable=0;points=[[0,0.5],[1,0.5]];portConstraint=eastwest;" parent="ybDPWDcmM2NUyqlbh23f-213" vertex="1">
                    <mxGeometry y="282" width="160" height="26" as="geometry"/>
                </mxCell>
                <mxCell id="246" style="edgeStyle=none;html=1;dashed=1;startArrow=open;startFill=0;endArrow=open;endFill=0;" parent="WIyWlLk6GJQsqaUBKTNV-1" source="187" target="241" edge="1">
                    <mxGeometry relative="1" as="geometry"/>
                </mxCell>
                <mxCell id="254" style="edgeStyle=none;html=1;dashed=1;startArrow=none;startFill=0;endArrow=open;endFill=0;" parent="WIyWlLk6GJQsqaUBKTNV-1" source="187" target="249" edge="1">
                    <mxGeometry relative="1" as="geometry"/>
                </mxCell>
                <object label="&lt;&lt;boundary&gt;&gt;&#10;ViewModel" placeholders="1" id="187">
                    <mxCell style="swimlane;fontStyle=0;align=center;verticalAlign=top;childLayout=stackLayout;horizontal=1;startSize=40;horizontalStack=0;resizeParent=1;resizeLast=0;collapsible=1;marginBottom=0;rounded=0;shadow=0;strokeWidth=1;" parent="WIyWlLk6GJQsqaUBKTNV-1" vertex="1">
                        <mxGeometry x="590" y="928" width="160" height="100" as="geometry">
                            <mxRectangle x="1260" y="310" width="160" height="26" as="alternateBounds"/>
                        </mxGeometry>
                    </mxCell>
                </object>
                <mxCell id="191" value="" style="line;html=1;strokeWidth=1;align=left;verticalAlign=middle;spacingTop=-1;spacingLeft=3;spacingRight=3;rotatable=0;labelPosition=right;points=[];portConstraint=eastwest;" parent="187" vertex="1">
                    <mxGeometry y="40" width="160" height="8" as="geometry"/>
                </mxCell>
                <mxCell id="218" value="傳送資料()" style="text;align=left;verticalAlign=top;spacingLeft=4;spacingRight=4;overflow=hidden;rotatable=0;points=[[0,0.5],[1,0.5]];portConstraint=eastwest;" parent="187" vertex="1">
                    <mxGeometry y="48" width="160" height="26" as="geometry"/>
                </mxCell>
                <mxCell id="251" value="發出變更資料提示()" style="text;align=left;verticalAlign=top;spacingLeft=4;spacingRight=4;overflow=hidden;rotatable=0;points=[[0,0.5],[1,0.5]];portConstraint=eastwest;" parent="187" vertex="1">
                    <mxGeometry y="74" width="160" height="26" as="geometry"/>
                </mxCell>
                <mxCell id="217" style="edgeStyle=none;html=1;dashed=1;endArrow=open;endFill=0;" parent="WIyWlLk6GJQsqaUBKTNV-1" source="193" target="ybDPWDcmM2NUyqlbh23f-213" edge="1">
                    <mxGeometry relative="1" as="geometry"/>
                </mxCell>
                <object label="&lt;&lt;entity&gt;&gt;&#10;老師資料庫" placeholders="1" id="193">
                    <mxCell style="swimlane;fontStyle=0;align=center;verticalAlign=top;childLayout=stackLayout;horizontal=1;startSize=40;horizontalStack=0;resizeParent=1;resizeLast=0;collapsible=1;marginBottom=0;rounded=0;shadow=0;strokeWidth=1;" parent="WIyWlLk6GJQsqaUBKTNV-1" vertex="1">
                        <mxGeometry x="830" y="390" width="160" height="210" as="geometry">
                            <mxRectangle x="1260" y="310" width="160" height="26" as="alternateBounds"/>
                        </mxGeometry>
                    </mxCell>
                </object>
                <mxCell id="212" value="建立日期:Datetime" style="text;align=left;verticalAlign=top;spacingLeft=4;spacingRight=4;overflow=hidden;rotatable=0;points=[[0,0.5],[1,0.5]];portConstraint=eastwest;rounded=0;shadow=0;html=0;" parent="193" vertex="1">
                    <mxGeometry y="40" width="160" height="26" as="geometry"/>
                </mxCell>
                <mxCell id="211" value="使用者名稱:String" style="text;align=left;verticalAlign=top;spacingLeft=4;spacingRight=4;overflow=hidden;rotatable=0;points=[[0,0.5],[1,0.5]];portConstraint=eastwest;" parent="193" vertex="1">
                    <mxGeometry y="66" width="160" height="26" as="geometry"/>
                </mxCell>
                <mxCell id="210" value="使用者編號:Integer" style="text;align=left;verticalAlign=top;spacingLeft=4;spacingRight=4;overflow=hidden;rotatable=0;points=[[0,0.5],[1,0.5]];portConstraint=eastwest;rounded=0;shadow=0;html=0;" parent="193" vertex="1">
                    <mxGeometry y="92" width="160" height="26" as="geometry"/>
                </mxCell>
                <mxCell id="198" value="" style="line;html=1;strokeWidth=1;align=left;verticalAlign=middle;spacingTop=-1;spacingLeft=3;spacingRight=3;rotatable=0;labelPosition=right;points=[];portConstraint=eastwest;" parent="193" vertex="1">
                    <mxGeometry y="118" width="160" height="8" as="geometry"/>
                </mxCell>
                <mxCell id="215" value="存取教學評量()" style="text;align=left;verticalAlign=top;spacingLeft=4;spacingRight=4;overflow=hidden;rotatable=0;points=[[0,0.5],[1,0.5]];portConstraint=eastwest;" parent="193" vertex="1">
                    <mxGeometry y="126" width="160" height="26" as="geometry"/>
                </mxCell>
                <mxCell id="214" value="存取暫存備課資料()" style="text;align=left;verticalAlign=top;spacingLeft=4;spacingRight=4;overflow=hidden;rotatable=0;points=[[0,0.5],[1,0.5]];portConstraint=eastwest;" parent="193" vertex="1">
                    <mxGeometry y="152" width="160" height="26" as="geometry"/>
                </mxCell>
                <mxCell id="213" value="存取備課資料()" style="text;align=left;verticalAlign=top;spacingLeft=4;spacingRight=4;overflow=hidden;rotatable=0;points=[[0,0.5],[1,0.5]];portConstraint=eastwest;" parent="193" vertex="1">
                    <mxGeometry y="178" width="160" height="26" as="geometry"/>
                </mxCell>
                <mxCell id="232" style="edgeStyle=none;html=1;dashed=1;startArrow=none;startFill=0;endArrow=open;endFill=0;" parent="WIyWlLk6GJQsqaUBKTNV-1" source="221" target="227" edge="1">
                    <mxGeometry relative="1" as="geometry"/>
                </mxCell>
                <mxCell id="237" style="edgeStyle=none;html=1;dashed=1;startArrow=none;startFill=0;endArrow=open;endFill=0;" parent="WIyWlLk6GJQsqaUBKTNV-1" source="221" target="234" edge="1">
                    <mxGeometry relative="1" as="geometry"/>
                </mxCell>
                <object label="&lt;&lt;boundary&gt;&gt;&#10;GPTAPI" placeholders="1" id="221">
                    <mxCell style="swimlane;fontStyle=0;align=center;verticalAlign=top;childLayout=stackLayout;horizontal=1;startSize=40;horizontalStack=0;resizeParent=1;resizeLast=0;collapsible=1;marginBottom=0;rounded=0;shadow=0;strokeWidth=1;" parent="WIyWlLk6GJQsqaUBKTNV-1" vertex="1">
                        <mxGeometry x="1070" y="44" width="160" height="386" as="geometry">
                            <mxRectangle x="1260" y="310" width="160" height="26" as="alternateBounds"/>
                        </mxGeometry>
                    </mxCell>
                </object>
                <mxCell id="256" value="備課資料:String" style="text;align=left;verticalAlign=top;spacingLeft=4;spacingRight=4;overflow=hidden;rotatable=0;points=[[0,0.5],[1,0.5]];portConstraint=eastwest;" vertex="1" parent="221">
                    <mxGeometry y="40" width="160" height="26" as="geometry"/>
                </mxCell>
                <mxCell id="257" value="API 密鑰: String" style="text;align=left;verticalAlign=top;spacingLeft=4;spacingRight=4;overflow=hidden;rotatable=0;points=[[0,0.5],[1,0.5]];portConstraint=eastwest;" vertex="1" parent="221">
                    <mxGeometry y="66" width="160" height="26" as="geometry"/>
                </mxCell>
                <mxCell id="258" value="模型: String" style="text;align=left;verticalAlign=top;spacingLeft=4;spacingRight=4;overflow=hidden;rotatable=0;points=[[0,0.5],[1,0.5]];portConstraint=eastwest;" vertex="1" parent="221">
                    <mxGeometry y="92" width="160" height="26" as="geometry"/>
                </mxCell>
                <mxCell id="259" value="提示: String" style="text;align=left;verticalAlign=top;spacingLeft=4;spacingRight=4;overflow=hidden;rotatable=0;points=[[0,0.5],[1,0.5]];portConstraint=eastwest;" vertex="1" parent="221">
                    <mxGeometry y="118" width="160" height="26" as="geometry"/>
                </mxCell>
                <mxCell id="266" value="最大標記數: int" style="text;align=left;verticalAlign=top;spacingLeft=4;spacingRight=4;overflow=hidden;rotatable=0;points=[[0,0.5],[1,0.5]];portConstraint=eastwest;" vertex="1" parent="221">
                    <mxGeometry y="144" width="160" height="26" as="geometry"/>
                </mxCell>
                <mxCell id="267" value="溫度: float" style="text;align=left;verticalAlign=top;spacingLeft=4;spacingRight=4;overflow=hidden;rotatable=0;points=[[0,0.5],[1,0.5]];portConstraint=eastwest;" vertex="1" parent="221">
                    <mxGeometry y="170" width="160" height="26" as="geometry"/>
                </mxCell>
                <mxCell id="268" value="頂部概率: float" style="text;align=left;verticalAlign=top;spacingLeft=4;spacingRight=4;overflow=hidden;rotatable=0;points=[[0,0.5],[1,0.5]];portConstraint=eastwest;" vertex="1" parent="221">
                    <mxGeometry y="196" width="160" height="26" as="geometry"/>
                </mxCell>
                <mxCell id="269" value="頻率懲罰: float" style="text;align=left;verticalAlign=top;spacingLeft=4;spacingRight=4;overflow=hidden;rotatable=0;points=[[0,0.5],[1,0.5]];portConstraint=eastwest;" vertex="1" parent="221">
                    <mxGeometry y="222" width="160" height="26" as="geometry"/>
                </mxCell>
                <mxCell id="270" value="存在懲罰: float" style="text;align=left;verticalAlign=top;spacingLeft=4;spacingRight=4;overflow=hidden;rotatable=0;points=[[0,0.5],[1,0.5]];portConstraint=eastwest;" vertex="1" parent="221">
                    <mxGeometry y="248" width="160" height="26" as="geometry"/>
                </mxCell>
                <mxCell id="225" value="" style="line;html=1;strokeWidth=1;align=left;verticalAlign=middle;spacingTop=-1;spacingLeft=3;spacingRight=3;rotatable=0;labelPosition=right;points=[];portConstraint=eastwest;" parent="221" vertex="1">
                    <mxGeometry y="274" width="160" height="8" as="geometry"/>
                </mxCell>
                <mxCell id="271" value="傳輸推薦資料()" style="text;align=left;verticalAlign=top;spacingLeft=4;spacingRight=4;overflow=hidden;rotatable=0;points=[[0,0.5],[1,0.5]];portConstraint=eastwest;" vertex="1" parent="221">
                    <mxGeometry y="282" width="160" height="26" as="geometry"/>
                </mxCell>
                <mxCell id="272" value="生成文本()" style="text;align=left;verticalAlign=top;spacingLeft=4;spacingRight=4;overflow=hidden;rotatable=0;points=[[0,0.5],[1,0.5]];portConstraint=eastwest;" vertex="1" parent="221">
                    <mxGeometry y="308" width="160" height="26" as="geometry"/>
                </mxCell>
                <mxCell id="273" value="編輯文本()" style="text;align=left;verticalAlign=top;spacingLeft=4;spacingRight=4;overflow=hidden;rotatable=0;points=[[0,0.5],[1,0.5]];portConstraint=eastwest;" vertex="1" parent="221">
                    <mxGeometry y="334" width="160" height="26" as="geometry"/>
                </mxCell>
                <mxCell id="274" value="生成嵌入向量()" style="text;align=left;verticalAlign=top;spacingLeft=4;spacingRight=4;overflow=hidden;rotatable=0;points=[[0,0.5],[1,0.5]];portConstraint=eastwest;" vertex="1" parent="221">
                    <mxGeometry y="360" width="160" height="26" as="geometry"/>
                </mxCell>
                <mxCell id="233" style="edgeStyle=none;html=1;dashed=1;startArrow=none;startFill=0;endArrow=open;endFill=0;" parent="WIyWlLk6GJQsqaUBKTNV-1" source="227" target="ybDPWDcmM2NUyqlbh23f-213" edge="1">
                    <mxGeometry relative="1" as="geometry"/>
                </mxCell>
                <object label="&lt;&lt;control&gt;&gt;&#10;儲存" placeholders="1" id="227">
                    <mxCell style="swimlane;fontStyle=0;align=center;verticalAlign=top;childLayout=stackLayout;horizontal=1;startSize=40;horizontalStack=0;resizeParent=1;resizeLast=0;collapsible=1;marginBottom=0;rounded=0;shadow=0;strokeWidth=1;" parent="WIyWlLk6GJQsqaUBKTNV-1" vertex="1">
                        <mxGeometry x="1070" y="510" width="160" height="80" as="geometry">
                            <mxRectangle x="1260" y="310" width="160" height="26" as="alternateBounds"/>
                        </mxGeometry>
                    </mxCell>
                </object>
                <mxCell id="228" value="" style="line;html=1;strokeWidth=1;align=left;verticalAlign=middle;spacingTop=-1;spacingLeft=3;spacingRight=3;rotatable=0;labelPosition=right;points=[];portConstraint=eastwest;" parent="227" vertex="1">
                    <mxGeometry y="40" width="160" height="8" as="geometry"/>
                </mxCell>
                <mxCell id="229" value="儲存推薦備課資料()" style="text;align=left;verticalAlign=top;spacingLeft=4;spacingRight=4;overflow=hidden;rotatable=0;points=[[0,0.5],[1,0.5]];portConstraint=eastwest;" parent="227" vertex="1">
                    <mxGeometry y="48" width="160" height="26" as="geometry"/>
                </mxCell>
                <mxCell id="238" style="edgeStyle=none;html=1;dashed=1;startArrow=none;startFill=0;endArrow=open;endFill=0;" parent="WIyWlLk6GJQsqaUBKTNV-1" source="234" target="ybDPWDcmM2NUyqlbh23f-213" edge="1">
                    <mxGeometry relative="1" as="geometry"/>
                </mxCell>
                <object label="&lt;&lt;control&gt;&gt;&#10;更新" placeholders="1" id="234">
                    <mxCell style="swimlane;fontStyle=0;align=center;verticalAlign=top;childLayout=stackLayout;horizontal=1;startSize=40;horizontalStack=0;resizeParent=1;resizeLast=0;collapsible=1;marginBottom=0;rounded=0;shadow=0;strokeWidth=1;" parent="WIyWlLk6GJQsqaUBKTNV-1" vertex="1">
                        <mxGeometry x="1270" y="510" width="160" height="80" as="geometry">
                            <mxRectangle x="1260" y="310" width="160" height="26" as="alternateBounds"/>
                        </mxGeometry>
                    </mxCell>
                </object>
                <mxCell id="235" value="" style="line;html=1;strokeWidth=1;align=left;verticalAlign=middle;spacingTop=-1;spacingLeft=3;spacingRight=3;rotatable=0;labelPosition=right;points=[];portConstraint=eastwest;" parent="234" vertex="1">
                    <mxGeometry y="40" width="160" height="8" as="geometry"/>
                </mxCell>
                <mxCell id="236" value="儲存推薦備課資料()" style="text;align=left;verticalAlign=top;spacingLeft=4;spacingRight=4;overflow=hidden;rotatable=0;points=[[0,0.5],[1,0.5]];portConstraint=eastwest;" parent="234" vertex="1">
                    <mxGeometry y="48" width="160" height="26" as="geometry"/>
                </mxCell>
                <mxCell id="247" style="edgeStyle=none;html=1;dashed=1;startArrow=none;startFill=0;endArrow=open;endFill=0;" parent="WIyWlLk6GJQsqaUBKTNV-1" source="241" target="ybDPWDcmM2NUyqlbh23f-213" edge="1">
                    <mxGeometry relative="1" as="geometry"/>
                </mxCell>
                <object label="&lt;&lt;boundary&gt;&gt;&#10;Model" placeholders="1" id="241">
                    <mxCell style="swimlane;fontStyle=0;align=center;verticalAlign=top;childLayout=stackLayout;horizontal=1;startSize=40;horizontalStack=0;resizeParent=1;resizeLast=0;collapsible=1;marginBottom=0;rounded=0;shadow=0;strokeWidth=1;" parent="WIyWlLk6GJQsqaUBKTNV-1" vertex="1">
                        <mxGeometry x="805" y="1110" width="160" height="100" as="geometry">
                            <mxRectangle x="1260" y="310" width="160" height="26" as="alternateBounds"/>
                        </mxGeometry>
                    </mxCell>
                </object>
                <mxCell id="242" value="" style="line;html=1;strokeWidth=1;align=left;verticalAlign=middle;spacingTop=-1;spacingLeft=3;spacingRight=3;rotatable=0;labelPosition=right;points=[];portConstraint=eastwest;" parent="241" vertex="1">
                    <mxGeometry y="40" width="160" height="8" as="geometry"/>
                </mxCell>
                <mxCell id="243" value="更新編輯完建議資料()" style="text;align=left;verticalAlign=top;spacingLeft=4;spacingRight=4;overflow=hidden;rotatable=0;points=[[0,0.5],[1,0.5]];portConstraint=eastwest;" parent="241" vertex="1">
                    <mxGeometry y="48" width="160" height="26" as="geometry"/>
                </mxCell>
                <mxCell id="248" value="回傳備課資料()" style="text;align=left;verticalAlign=top;spacingLeft=4;spacingRight=4;overflow=hidden;rotatable=0;points=[[0,0.5],[1,0.5]];portConstraint=eastwest;" parent="241" vertex="1">
                    <mxGeometry y="74" width="160" height="26" as="geometry"/>
                </mxCell>
                <mxCell id="255" style="edgeStyle=none;html=1;dashed=1;startArrow=none;startFill=0;endArrow=open;endFill=0;" parent="WIyWlLk6GJQsqaUBKTNV-1" source="249" target="ybDPWDcmM2NUyqlbh23f-171" edge="1">
                    <mxGeometry relative="1" as="geometry"/>
                </mxCell>
                <object label="&lt;&lt;control&gt;&gt;&#10;監聽" placeholders="1" id="249">
                    <mxCell style="swimlane;fontStyle=0;align=center;verticalAlign=top;childLayout=stackLayout;horizontal=1;startSize=40;horizontalStack=0;resizeParent=1;resizeLast=0;collapsible=1;marginBottom=0;rounded=0;shadow=0;strokeWidth=1;" parent="WIyWlLk6GJQsqaUBKTNV-1" vertex="1">
                        <mxGeometry x="540" y="1080" width="160" height="80" as="geometry">
                            <mxRectangle x="1260" y="310" width="160" height="26" as="alternateBounds"/>
                        </mxGeometry>
                    </mxCell>
                </object>
                <mxCell id="250" value="" style="line;html=1;strokeWidth=1;align=left;verticalAlign=middle;spacingTop=-1;spacingLeft=3;spacingRight=3;rotatable=0;labelPosition=right;points=[];portConstraint=eastwest;" parent="249" vertex="1">
                    <mxGeometry y="40" width="160" height="8" as="geometry"/>
                </mxCell>
                <mxCell id="253" value="回傳變更資料提示()" style="text;align=left;verticalAlign=top;spacingLeft=4;spacingRight=4;overflow=hidden;rotatable=0;points=[[0,0.5],[1,0.5]];portConstraint=eastwest;" parent="249" vertex="1">
                    <mxGeometry y="48" width="160" height="26" as="geometry"/>
                </mxCell>
                <mxCell id="mC9Z-3aJpcpw1l5U_J7o-255" value="1" style="text;html=1;align=center;verticalAlign=middle;whiteSpace=wrap;rounded=0;" vertex="1" parent="WIyWlLk6GJQsqaUBKTNV-1">
                    <mxGeometry x="920" y="615" width="60" height="30" as="geometry"/>
                </mxCell>
                <mxCell id="mC9Z-3aJpcpw1l5U_J7o-256" value="n" style="text;html=1;align=center;verticalAlign=middle;resizable=0;points=[];autosize=1;strokeColor=none;fillColor=none;" vertex="1" parent="WIyWlLk6GJQsqaUBKTNV-1">
                    <mxGeometry x="935" y="678" width="30" height="30" as="geometry"/>
                </mxCell>
            </root>
        </mxGraphModel>
    </diagram>
</mxfile>